<svg xmlns="http://www.w3.org/2000/svg" xmlns:xlink="http://www.w3.org/1999/xlink" width="294.225" height="226"
     viewBox="0 0 294.225 226">
    <defs>
        <clipPath id="clip-path">
            <rect id="Rectangle_25119" data-name="Rectangle 25119" width="294.225" height="222.496" fill="none"/>
        </clipPath>
        <clipPath id="clip-path-2">
            <rect id="Rectangle_25127" data-name="Rectangle 25127" width="294.225" height="226" fill="none"/>
        </clipPath>
        <clipPath id="clip-path-3">
            <rect id="Rectangle_25123" data-name="Rectangle 25123" width="6.358" height="6.244" fill="none"/>
        </clipPath>
        <clipPath id="clip-path-4">
            <rect id="Rectangle_25124" data-name="Rectangle 25124" width="8.099" height="5.703" fill="none"/>
        </clipPath>
        <clipPath id="clip-path-5">
            <rect id="Rectangle_25124-2" data-name="Rectangle 25124" width="6.309" height="4.443" fill="none"/>
        </clipPath>
        <clipPath id="clip-path-6">
            <rect id="Rectangle_25124-3" data-name="Rectangle 25124" width="8.298" height="5.843" fill="none"/>
        </clipPath>
    </defs>
    <g id="Group_9291" data-name="Group 9291" transform="translate(0 3.504)">
        <g id="Group_9292" data-name="Group 9292">
            <g id="Group_9272" data-name="Group 9272">
                <g id="Group_9293" data-name="Group 9293">
                    <g id="Group_9267" data-name="Group 9267" opacity="0.2">
                        <g id="Group_9266" data-name="Group 9266">
                            <g id="Group_9265" data-name="Group 9265" clip-path="url(#clip-path)">
                                <path id="Path_18244" data-name="Path 18244"
                                      d="M801.441,854.154a.669.669,0,0,1-.2-.031,12.162,12.162,0,0,1-3.138-1.615.668.668,0,1,1,.757-1.1,11,11,0,0,0,2.784,1.443.668.668,0,0,1-.2,1.305m3.146-.4a.668.668,0,0,1-.438-1.173,6.294,6.294,0,0,0,1.541-2.547.668.668,0,1,1,1.253.464,7.472,7.472,0,0,1-1.919,3.092.666.666,0,0,1-.437.163M795.9,850.5a.666.666,0,0,1-.464-.187,23.86,23.86,0,0,1-2.3-2.558.668.668,0,1,1,1.056-.819,22.512,22.512,0,0,0,2.168,2.414.668.668,0,0,1-.464,1.149m11.246-2.8a.669.669,0,0,1-.66-.778,25.553,25.553,0,0,0,.322-3.239.668.668,0,1,1,1.336.05,26.879,26.879,0,0,1-.34,3.409.669.669,0,0,1-.658.558m-15.309-2.475a.668.668,0,0,1-.589-.352,15.485,15.485,0,0,1-1.318-3.227.668.668,0,1,1,1.289-.353,14.16,14.16,0,0,0,1.206,2.947.669.669,0,0,1-.588.985m15.566-4.189a.668.668,0,0,1-.665-.613,22.965,22.965,0,0,0-.484-3.208.668.668,0,0,1,1.3-.3,24.313,24.313,0,0,1,.513,3.4.668.668,0,0,1-.611.721l-.056,0m-17.186-2.2-.051,0a.668.668,0,0,1-.616-.717,8.08,8.08,0,0,1,.742-2.851c.095-.2.2-.4.314-.6a.668.668,0,0,1,1.158.667c-.1.166-.184.335-.263.5a6.752,6.752,0,0,0-.618,2.382.668.668,0,0,1-.666.618m15.634-4.264a.668.668,0,0,1-.606-.385,7.718,7.718,0,0,0-1.754-2.5.668.668,0,1,1,.894-.994,9.033,9.033,0,0,1,2.071,2.925.669.669,0,0,1-.6.951m-12.5-1.429a.668.668,0,0,1-.43-1.18A12.755,12.755,0,0,1,795.9,830.1a.668.668,0,1,1,.543,1.221,11.4,11.4,0,0,0-2.67,1.663.666.666,0,0,1-.429.156m9.3-2.146a.666.666,0,0,1-.284-.064,5.238,5.238,0,0,0-2.243-.458c-.22,0-.448.011-.677.032a.668.668,0,0,1-.124-1.331c.27-.025.54-.038.8-.038a6.559,6.559,0,0,1,2.811.585.668.668,0,0,1-.285,1.273"
                                      transform="translate(-736.787 -773.727)" fill="#b1b1b1"/>
                                <path id="Path_18245" data-name="Path 18245"
                                      d="M305.639,1060.708h-.013a33.8,33.8,0,0,1-3.4-.234.668.668,0,1,1,.161-1.327,32.485,32.485,0,0,0,3.265.225.668.668,0,0,1-.013,1.336m3.34-.087a.668.668,0,0,1-.046-1.335c1.087-.077,2.185-.2,3.263-.372a.668.668,0,1,1,.208,1.32c-1.116.176-2.252.306-3.377.385l-.048,0m-9.957-.738a.669.669,0,0,1-.161-.02,22.48,22.48,0,0,1-3.27-1.069.668.668,0,1,1,.516-1.233,21.173,21.173,0,0,0,3.075,1,.668.668,0,0,1-.16,1.317m16.552-.307a.668.668,0,0,1-.162-1.317,31.5,31.5,0,0,0,3.129-.956.668.668,0,0,1,.459,1.255,32.81,32.81,0,0,1-3.262,1,.669.669,0,0,1-.164.02m-22.666-2.3a.666.666,0,0,1-.375-.115,13.837,13.837,0,0,1-2.633-2.307.668.668,0,1,1,1-.882,12.493,12.493,0,0,0,2.379,2.083.668.668,0,0,1-.376,1.221m28.916-.024a.668.668,0,0,1-.316-1.258,13.652,13.652,0,0,0,2.629-1.783.668.668,0,1,1,.888,1,14.975,14.975,0,0,1-2.887,1.963.665.665,0,0,1-.315.079m4.674-4.56a.669.669,0,0,1-.635-.878,3.87,3.87,0,0,0,.189-1.214,5.454,5.454,0,0,0-.281-1.655.668.668,0,1,1,1.273-.408,6.783,6.783,0,0,1,.344,2.063,5.2,5.2,0,0,1-.256,1.632.668.668,0,0,1-.635.459m-37.932-.39a.668.668,0,0,1-.6-.374,15.893,15.893,0,0,1-1.173-3.278.668.668,0,1,1,1.3-.313,14.569,14.569,0,0,0,1.074,3,.669.669,0,0,1-.6.963m36.314-5.849a.668.668,0,0,1-.55-.287,21.187,21.187,0,0,0-2.062-2.5.668.668,0,0,1,.968-.922,22.537,22.537,0,0,1,2.193,2.655.668.668,0,0,1-.548,1.049m-37.889-.6a.668.668,0,0,1-.667-.645c-.007-.2-.011-.41-.011-.613a16.741,16.741,0,0,1,.243-2.853.668.668,0,0,1,1.317.229,15.392,15.392,0,0,0-.223,2.625c0,.187,0,.377.01.565a.668.668,0,0,1-.644.692h-.024m33.329-4.273a.666.666,0,0,1-.434-.161c-.816-.7-1.686-1.383-2.585-2.033a.668.668,0,0,1,.783-1.083c.928.671,1.827,1.378,2.671,2.1a.668.668,0,0,1-.435,1.176m-32.163-2.251a.669.669,0,0,1-.613-.934,12.439,12.439,0,0,1,1.829-3.005.668.668,0,1,1,1.029.853,11.1,11.1,0,0,0-1.631,2.683.668.668,0,0,1-.614.4m26.745-1.658a.666.666,0,0,1-.341-.094q-.169-.1-.333-.2c-.915-.529-1.9-1.044-2.917-1.529a.668.668,0,1,1,.574-1.207c1.052.5,2.065,1.032,3.011,1.579l.349.2a.668.668,0,0,1-.343,1.242m-6.376-3.074a.667.667,0,0,1-.239-.045c-1.057-.405-2.1-.754-3.113-1.037a.668.668,0,0,1,.361-1.287c1.048.294,2.135.656,3.23,1.076a.668.668,0,0,1-.24,1.292m-16.135-.3a.668.668,0,0,1-.354-1.236,11.567,11.567,0,0,1,3.252-1.374.668.668,0,0,1,.332,1.295,10.236,10.236,0,0,0-2.878,1.214.665.665,0,0,1-.353.1m9.7-1.469a.663.663,0,0,1-.1-.008,19.692,19.692,0,0,0-2.972-.239l-.246,0h-.01a.668.668,0,0,1-.01-1.337l.266,0a21.019,21.019,0,0,1,3.175.255.668.668,0,0,1-.1,1.329"
                                      transform="translate(-267.18 -962.326)" fill="#b1b1b1"/>
                                <path id="Path_18246" data-name="Path 18246"
                                      d="M47,507.225a.668.668,0,0,1,0-1.336c1.084,0,2.2-.019,3.323-.05a.668.668,0,0,1,.037,1.336c-1.132.031-2.262.048-3.358.05Zm-3.34-.041h-.018c-1.134-.03-2.263-.078-3.357-.142a.668.668,0,1,1,.078-1.334c1.08.063,2.195.111,3.314.14a.668.668,0,0,1-.018,1.336m10.019-.142a.668.668,0,0,1-.034-1.336c1.087-.056,2.2-.126,3.32-.208a.668.668,0,1,1,.1,1.333c-1.126.083-2.253.153-3.349.21h-.035M37,506.79c-.021,0-.042,0-.063,0-1.132-.107-2.256-.234-3.342-.38a.668.668,0,1,1,.178-1.325c1.068.143,2.175.269,3.289.374A.668.668,0,0,1,37,506.79m23.346-.235a.668.668,0,0,1-.061-1.334c1.084-.1,2.2-.216,3.311-.34a.668.668,0,0,1,.149,1.328c-1.121.125-2.244.241-3.336.343l-.063,0m5.015-.539a.668.668,0,0,1-.16-1.317q1.615-.4,3.244-.8a.668.668,0,0,1,.319,1.3q-1.628.4-3.242.8a.669.669,0,0,1-.162.02M30.385,505.9a.671.671,0,0,1-.119-.011c-1.123-.2-2.234-.43-3.3-.678a.668.668,0,1,1,.3-1.3c1.045.243,2.134.467,3.235.665a.668.668,0,0,1-.118,1.326m41.46-1.476a.668.668,0,0,1-.157-1.318c1.105-.269,2.2-.532,3.25-.784a.668.668,0,0,1,.311,1.3c-1.05.251-2.141.514-3.245.783a.671.671,0,0,1-.158.019M23.89,504.38a.663.663,0,0,1-.189-.027c-1.1-.323-2.179-.678-3.21-1.055a.668.668,0,1,1,.46-1.255c1,.367,2.055.713,3.127,1.028a.668.668,0,0,1-.188,1.309m54.453-1.512a.668.668,0,0,1-.152-1.319c1.095-.257,2.19-.512,3.257-.757a.668.668,0,0,1,.3,1.3c-1.064.245-2.158.5-3.251.755a.663.663,0,0,1-.153.018m-60.709-.791a.665.665,0,0,1-.276-.06c-1.048-.476-2.066-.99-3.027-1.53a.668.668,0,1,1,.654-1.165c.927.521,1.911,1.018,2.925,1.478a.668.668,0,0,1-.277,1.277m67.22-.706a.668.668,0,0,1-.146-1.32c1.1-.246,2.195-.489,3.265-.723a.668.668,0,1,1,.285,1.306c-1.068.233-2.164.476-3.258.722a.671.671,0,0,1-.147.016m6.527-1.425a.668.668,0,0,1-.138-1.322c1.1-.233,2.2-.463,3.274-.683a.668.668,0,1,1,.269,1.309c-1.07.22-2.169.449-3.266.682a.66.66,0,0,1-.139.015M11.832,498.8a.666.666,0,0,1-.382-.12,31.356,31.356,0,0,1-2.687-2.1.668.668,0,0,1,.879-1.007,29.964,29.964,0,0,0,2.572,2.006.668.668,0,0,1-.383,1.216m86.093-.2a.668.668,0,0,1-.129-1.324c1.094-.217,2.2-.432,3.284-.639a.668.668,0,1,1,.251,1.313c-1.082.207-2.184.421-3.274.637a.66.66,0,0,1-.131.013m6.562-1.253a.668.668,0,0,1-.12-1.326c1.092-.2,2.2-.4,3.293-.591a.668.668,0,1,1,.231,1.316c-1.089.191-2.194.39-3.283.589a.675.675,0,0,1-.121.011m6.58-1.155a.668.668,0,0,1-.11-1.327c1.095-.184,2.206-.365,3.3-.541a.668.668,0,0,1,.211,1.32c-1.093.175-2.2.356-3.292.539a.671.671,0,0,1-.111.009m6.6-1.053a.668.668,0,0,1-.1-1.329c1.1-.167,2.213-.331,3.31-.488a.668.668,0,1,1,.19,1.323c-1.094.157-2.2.321-3.3.487a.66.66,0,0,1-.1.008M6.827,494.415a.667.667,0,0,1-.5-.221,26.454,26.454,0,0,1-2.12-2.688.668.668,0,0,1,1.1-.757A25.149,25.149,0,0,0,7.324,493.3a.668.668,0,0,1-.5,1.115m117.452-.222a.668.668,0,0,1-.089-1.331c1.1-.149,2.215-.3,3.318-.435a.668.668,0,0,1,.168,1.326c-1.1.14-2.211.286-3.307.434a.667.667,0,0,1-.09.006m6.628-.842a.668.668,0,0,1-.078-1.332c1.1-.131,2.222-.26,3.324-.382a.668.668,0,1,1,.147,1.328c-1.1.122-2.214.25-3.313.381a.665.665,0,0,1-.08,0m6.64-.736a.668.668,0,0,1-.068-1.333c1.1-.113,2.223-.224,3.33-.329a.668.668,0,1,1,.126,1.33c-1.1.1-2.22.215-3.319.328a.63.63,0,0,1-.069,0m6.651-.631a.668.668,0,0,1-.057-1.334c1.1-.1,2.226-.189,3.334-.277a.668.668,0,1,1,.106,1.332c-1.105.087-2.224.18-3.324.276l-.059,0m6.66-.527a.668.668,0,0,1-.047-1.335c1.1-.079,2.225-.155,3.338-.226a.668.668,0,1,1,.085,1.334c-1.109.071-2.229.147-3.328.225l-.048,0m6.668-.426a.668.668,0,0,1-.037-1.336c1.107-.062,2.231-.121,3.341-.176a.668.668,0,1,1,.065,1.335c-1.107.054-2.228.113-3.331.175h-.038m6.673-.327a.668.668,0,0,1-.027-1.336c1.1-.046,2.229-.089,3.343-.128a.668.668,0,0,1,.046,1.336c-1.111.039-2.233.081-3.333.127H164.2m36.743-.214h0c-.96,0-1.953-.019-2.951-.044l-.4-.01a.668.668,0,0,1,.032-1.336l.4.01c.99.024,1.974.039,2.925.043a.668.668,0,0,1,0,1.336m-30.066-.018a.668.668,0,0,1-.018-1.336c1.1-.03,2.227-.058,3.344-.081h.014a.668.668,0,0,1,.014,1.336c-1.114.023-2.236.05-3.335.081h-.019m33.4-.007a.668.668,0,0,1-.013-1.336c1.125-.023,2.241-.061,3.316-.114a.668.668,0,0,1,.065,1.335c-1.088.053-2.216.092-3.354.115h-.014m-10.019-.1h-.012c-1.115-.02-2.237-.036-3.337-.049a.668.668,0,0,1,.008-1.336h.008c1.1.013,2.228.029,3.345.049a.668.668,0,0,1-.011,1.336m-16.7-.035a.668.668,0,0,1-.009-1.336c1.109-.016,2.234-.028,3.345-.036h.005a.668.668,0,0,1,0,1.337c-1.108.008-2.23.02-3.336.036h-.01m10.023-.042h0c-.941-.005-1.894-.008-2.832-.008h-.5a.668.668,0,0,1,0-1.336h.505c.941,0,1.9,0,2.84.008a.668.668,0,0,1,0,1.337m23.366-.157a.668.668,0,0,1-.054-1.334c1.118-.092,2.227-.2,3.295-.331a.668.668,0,0,1,.159,1.327c-1.084.13-2.21.243-3.344.336l-.055,0m6.623-.8a.668.668,0,0,1-.106-1.328c1.1-.179,2.192-.382,3.249-.6a.668.668,0,1,1,.275,1.308c-1.077.227-2.191.434-3.31.615a.677.677,0,0,1-.108.009M3.061,488.923a.668.668,0,0,1-.6-.368,24.4,24.4,0,0,1-1.322-3.169.668.668,0,0,1,1.267-.426,23.039,23.039,0,0,0,1.25,3,.668.668,0,0,1-.6.968m221.034-.964a.668.668,0,0,1-.169-1.315c1.062-.279,2.129-.589,3.17-.92A.668.668,0,0,1,227.5,487c-1.063.339-2.152.655-3.237.94a.664.664,0,0,1-.17.022m6.355-2.023a.668.668,0,0,1-.235-1.294c1.009-.379,2.04-.794,3.065-1.236a.668.668,0,0,1,.528,1.228c-1.044.449-2.095.873-3.123,1.259a.665.665,0,0,1-.235.043m6.131-2.631a.668.668,0,0,1-.29-1.271c.96-.461,1.929-.947,2.964-1.486a.668.668,0,0,1,.618,1.185c-1.047.546-2.03,1.038-3,1.505a.666.666,0,0,1-.289.066M.945,482.6a.668.668,0,0,1-.657-.553A17.41,17.41,0,0,1,0,479.1c0-.151,0-.235,0-.244v-.023q.012-.149.026-.3a.668.668,0,1,1,1.33.126q-.013.133-.024.266c0,.021,0,.08,0,.173a16.227,16.227,0,0,0,.268,2.718.669.669,0,0,1-.659.784m241.56-2.372a.668.668,0,0,1-.323-1.254c.881-.486,1.83-1.019,2.9-1.63a.668.668,0,1,1,.662,1.161c-1.077.614-2.031,1.151-2.918,1.639a.665.665,0,0,1-.322.083m5.8-3.3a.668.668,0,0,1-.335-1.247l1.069-.619,1.82-1.053a.668.668,0,1,1,.668,1.157l-1.819,1.052-1.07.619a.664.664,0,0,1-.334.09M1.252,475.975a.678.678,0,0,1-.157-.019A.668.668,0,0,1,.6,475.15a27.861,27.861,0,0,1,1.011-3.267.668.668,0,1,1,1.251.471,26.516,26.516,0,0,0-.963,3.109.669.669,0,0,1-.649.512M254.092,473.6a.668.668,0,0,1-.331-1.249c1.031-.587,1.984-1.124,2.914-1.641a.668.668,0,1,1,.65,1.168c-.926.515-1.876,1.05-2.9,1.635a.666.666,0,0,1-.33.088m5.836-3.243a.668.668,0,0,1-.318-1.256c.994-.536,1.989-1.064,2.958-1.568a.668.668,0,1,1,.617,1.185c-.963.5-1.953,1.026-2.941,1.559a.666.666,0,0,1-.317.08M3.58,469.729a.669.669,0,0,1-.6-.967c.489-.978,1.045-1.977,1.652-2.969a.668.668,0,1,1,1.14.7c-.588.96-1.125,1.925-1.6,2.868a.668.668,0,0,1-.6.37m262.262-2.477a.668.668,0,0,1-.317-1.257c.967-.52,1.932-1.072,2.868-1.642a.668.668,0,0,1,.695,1.142c-.956.582-1.942,1.146-2.93,1.677a.664.664,0,0,1-.316.08M7.052,464.027a.668.668,0,0,1-.543-1.057c.633-.886,1.322-1.791,2.048-2.69a.668.668,0,1,1,1.04.84c-.71.879-1.383,1.762-2,2.627a.668.668,0,0,1-.544.28m264.5-.247a.668.668,0,0,1-.378-1.22c.907-.621,1.807-1.274,2.675-1.94a.668.668,0,1,1,.814,1.06c-.887.681-1.807,1.349-2.734,1.983a.666.666,0,0,1-.377.117m5.3-4.069a.668.668,0,0,1-.436-1.175c.835-.718,1.657-1.466,2.443-2.224a.668.668,0,1,1,.927.962c-.8.775-1.645,1.54-2.5,2.274a.666.666,0,0,1-.436.162m-265.6-.888a.668.668,0,0,1-.5-1.113c.725-.811,1.5-1.64,2.3-2.465a.668.668,0,0,1,.959.931c-.788.811-1.548,1.626-2.261,2.424a.667.667,0,0,1-.5.223m270.41-3.748a.668.668,0,0,1-.491-1.122c.749-.811,1.478-1.648,2.167-2.49a.668.668,0,0,1,1.034.846c-.706.862-1.452,1.721-2.219,2.551a.666.666,0,0,1-.491.215M15.9,454.024a.668.668,0,0,1-.462-1.151c.784-.752,1.613-1.522,2.464-2.289a.668.668,0,1,1,.9.992c-.841.758-1.66,1.519-2.434,2.262a.665.665,0,0,1-.462.186m269.983-4.12a.668.668,0,0,1-.542-1.058c.645-.9,1.262-1.821,1.833-2.74a.668.668,0,1,1,1.135.7c-.586.944-1.22,1.891-1.882,2.814a.667.667,0,0,1-.543.279m-265.022-.361a.668.668,0,0,1-.435-1.176c.823-.7,1.689-1.429,2.574-2.154a.668.668,0,1,1,.847,1.034c-.878.719-1.736,1.437-2.552,2.135a.666.666,0,0,1-.434.161m5.169-4.238a.668.668,0,0,1-.414-1.193c.849-.67,1.715-1.342,2.648-2.056a.668.668,0,1,1,.812,1.061c-.928.71-1.789,1.379-2.633,2.044a.665.665,0,0,1-.413.144M289.4,444.228a.668.668,0,0,1-.591-.979c.516-.983.992-1.981,1.415-2.968a.668.668,0,0,1,1.229.526c-.436,1.019-.928,2.049-1.46,3.063a.668.668,0,0,1-.592.358m-258.006-2.9a.668.668,0,0,1-.365-1.228c.965-.628,1.95-1.21,2.927-1.728a.668.668,0,1,1,.626,1.181c-.942.5-1.892,1.061-2.824,1.667a.667.667,0,0,1-.364.108m48.681-1.217h-.009c-1.085-.014-2.224-.072-3.385-.171a.668.668,0,1,1,.114-1.332c1.129.1,2.235.153,3.288.166a.668.668,0,0,1-.008,1.336m3.339-.1a.668.668,0,0,1-.049-1.335c1.1-.082,2.193-.216,3.251-.4a.668.668,0,0,1,.227,1.317c-1.1.19-2.238.33-3.38.414l-.05,0m-9.993-.454a.7.7,0,0,1-.1-.007C72.289,439.4,71.2,439.221,70,439a.668.668,0,1,1,.24-1.315c1.185.216,2.255.392,3.272.538a.668.668,0,0,1-.094,1.33m16.567-.685a.668.668,0,0,1-.179-1.312c1.04-.289,2.085-.637,3.106-1.034a.668.668,0,1,1,.484,1.246c-1.062.412-2.149.774-3.231,1.075a.667.667,0,0,1-.18.025m-23.144-.5a.672.672,0,0,1-.134-.014q-.99-.2-1.978-.407l-1.3-.268a.668.668,0,1,1,.269-1.309l1.3.268q.986.2,1.974.406a.668.668,0,0,1-.133,1.323m-29.552-.166a.668.668,0,0,1-.253-1.287,32.09,32.09,0,0,1,3.22-1.122.668.668,0,1,1,.371,1.284,30.777,30.777,0,0,0-3.085,1.075.667.667,0,0,1-.253.05m254.728-.119a.669.669,0,0,1-.635-.876c.347-1.058.638-2.12.866-3.156a.668.668,0,1,1,1.305.287c-.238,1.08-.541,2.185-.9,3.285a.668.668,0,0,1-.635.46m-231.727-1.04a.68.68,0,0,1-.124-.012c-1.2-.225-2.266-.408-3.27-.56a.668.668,0,1,1,.2-1.321c1.02.154,2.1.34,3.317.568a.668.668,0,0,1-.123,1.325m35.917-.588a.668.668,0,0,1-.3-1.266q.212-.106.425-.215c.834-.43,1.654-.894,2.436-1.38a.668.668,0,1,1,.705,1.135c-.812.5-1.663.987-2.529,1.433q-.221.114-.44.223a.665.665,0,0,1-.3.07m-52.513-.1a.668.668,0,0,1-.114-1.327,33.3,33.3,0,0,1,3.383-.411.668.668,0,0,1,.094,1.333,32,32,0,0,0-3.247.395.671.671,0,0,1-.116.01m9.988-.285q-.032,0-.064,0c-1.148-.109-2.223-.172-3.284-.194a.668.668,0,0,1,.027-1.336c1.094.022,2.2.088,3.383.2a.668.668,0,0,1-.062,1.333m48.179-3.13a.668.668,0,0,1-.407-1.2c.859-.659,1.695-1.368,2.483-2.108a.668.668,0,0,1,.915.974c-.821.771-1.69,1.509-2.585,2.195a.665.665,0,0,1-.406.138m191.57-1.371q-.033,0-.067,0a.668.668,0,0,1-.6-.732c.081-.812.122-1.619.122-2.4,0-.282-.005-.566-.016-.844a.668.668,0,1,1,1.335-.051c.011.294.017.6.017.895,0,.826-.044,1.678-.129,2.534a.668.668,0,0,1-.664.6M106.7,428.4a.668.668,0,0,1-.5-1.108c.706-.808,1.389-1.668,2.031-2.557a.668.668,0,0,1,1.084.782c-.666.923-1.375,1.816-2.109,2.655a.667.667,0,0,1-.5.228m186.443-3.478a.669.669,0,0,1-.654-.534,16.823,16.823,0,0,0-.935-3.069.668.668,0,0,1,1.234-.512,18.182,18.182,0,0,1,1.01,3.313.669.669,0,0,1-.655.8M110.6,423.007a.669.669,0,0,1-.573-1.011c.548-.917,1.076-1.886,1.57-2.881a.668.668,0,1,1,1.2.594c-.509,1.026-1.054,2.026-1.619,2.972a.668.668,0,0,1-.574.326m179.982-4.2a.668.668,0,0,1-.549-.286,14.2,14.2,0,0,0-2.094-2.385.668.668,0,0,1,.9-.986,15.74,15.74,0,0,1,2.289,2.608.668.668,0,0,1-.548,1.05m-177.01-1.765a.669.669,0,0,1-.617-.924c.408-.986.8-2.024,1.166-3.085a.668.668,0,0,1,1.263.436c-.375,1.085-.777,2.148-1.195,3.159a.669.669,0,0,1-.618.413m172.157-2.733a.665.665,0,0,1-.353-.1,25.99,25.99,0,0,0-2.868-1.534.668.668,0,0,1,.562-1.213,27.336,27.336,0,0,1,3.015,1.613.668.668,0,0,1-.355,1.235m-6.025-2.854a.667.667,0,0,1-.236-.043c-.883-.333-1.877-.687-3.127-1.112a.668.668,0,1,1,.43-1.265c1.265.43,2.272.788,3.169,1.127a.668.668,0,0,1-.236,1.293m-163.945-.719a.669.669,0,0,1-.642-.854c.3-1.027.581-2.1.847-3.2a.668.668,0,0,1,1.3.314c-.27,1.117-.56,2.213-.862,3.258a.669.669,0,0,1-.642.483m157.628-1.46a.665.665,0,0,1-.212-.035c-.936-.313-2.044-.686-3.172-1.084a.668.668,0,1,1,.445-1.26c1.119.395,2.221.766,3.152,1.077a.668.668,0,0,1-.212,1.3m-6.3-2.24a.668.668,0,0,1-.243-.046c-1.1-.429-2.118-.853-3.112-1.3a.668.668,0,0,1,.543-1.221c.975.434,1.975.85,3.055,1.272a.668.668,0,0,1-.243,1.291m-6.1-2.724a.665.665,0,0,1-.305-.074c-1.013-.521-2.008-1.072-2.957-1.639a.668.668,0,0,1,.685-1.147c.925.552,1.894,1.09,2.883,1.6a.668.668,0,0,1-.306,1.263m-143.658-.069a.669.669,0,0,1-.656-.8c.213-1.048.417-2.147.608-3.266a.668.668,0,1,1,1.317.225c-.193,1.133-.4,2.245-.615,3.307a.669.669,0,0,1-.654.536m137.932-3.357a.665.665,0,0,1-.38-.119c-.924-.641-1.837-1.322-2.712-2.023a.668.668,0,0,1,.836-1.043c.851.683,1.738,1.344,2.637,1.968a.668.668,0,0,1-.381,1.217m-136.8-3.233a.684.684,0,0,1-.1-.007.668.668,0,0,1-.566-.757c.152-1.054.3-2.165.439-3.3a.668.668,0,1,1,1.327.163c-.141,1.146-.289,2.266-.443,3.329a.668.668,0,0,1-.661.573m131.6-.939a.666.666,0,0,1-.453-.177c-.819-.755-1.628-1.554-2.406-2.375a.668.668,0,1,1,.97-.92c.758.8,1.546,1.577,2.343,2.312a.668.668,0,0,1-.453,1.159m-4.587-4.843a.667.667,0,0,1-.518-.245,33.843,33.843,0,0,1-2.022-2.737.668.668,0,1,1,1.115-.737A32.508,32.508,0,0,0,246,390.781a.668.668,0,0,1-.517,1.091m-126.194-.856a.708.708,0,0,1-.071,0,.668.668,0,0,1-.594-.735c.112-1.059.219-2.145.329-3.32a.668.668,0,1,1,1.331.124c-.11,1.181-.218,2.272-.33,3.337a.669.669,0,0,1-.664.6m122.536-4.71a.668.668,0,0,1-.6-.367,30.781,30.781,0,0,1-1.361-3.125.668.668,0,1,1,1.252-.468,29.44,29.44,0,0,0,1.3,2.991.669.669,0,0,1-.6.97m-121.914-1.95-.057,0a.668.668,0,0,1-.61-.722c.084-1,.172-2.09.27-3.337a.668.668,0,0,1,1.332.1c-.1,1.25-.187,2.344-.27,3.344a.668.668,0,0,1-.665.613m119.538-4.278a.669.669,0,0,1-.641-.48c-.238-.807-.458-1.6-.69-2.443l-.216-.781a.668.668,0,1,1,1.287-.358l.217.783c.231.836.45,1.626.685,2.422a.669.669,0,0,1-.641.857m-119.01-2.4-.052,0a.668.668,0,0,1-.615-.717q.128-1.668.257-3.33a.668.668,0,1,1,1.332.1q-.13,1.66-.257,3.328a.668.668,0,0,1-.666.617M237.6,373.661a.669.669,0,0,1-.637-.467c-.35-1.107-.706-2.125-1.089-3.11a.668.668,0,1,1,1.246-.483c.392,1.012.758,2.056,1.117,3.19a.668.668,0,0,1-.637.87m-116.638-2.645-.057,0a.668.668,0,0,1-.61-.722c.1-1.2.2-2.294.3-3.338a.668.668,0,0,1,1.331.124c-.1,1.04-.193,2.128-.294,3.326a.668.668,0,0,1-.665.612m114.217-3.573a.668.668,0,0,1-.6-.382c-.461-.972-.969-1.957-1.513-2.926a.668.668,0,1,1,1.166-.653c.558,1,1.081,2.008,1.554,3.007a.669.669,0,0,1-.6.954m-113.59-3.088a.669.669,0,0,1-.665-.74c.124-1.157.254-2.279.387-3.335a.668.668,0,0,1,1.326.167c-.132,1.047-.261,2.161-.384,3.31a.668.668,0,0,1-.664.6m110.334-2.741a.668.668,0,0,1-.562-.306c-.585-.907-1.213-1.824-1.868-2.725a.668.668,0,0,1,1.081-.786c.67.921,1.312,1.859,1.911,2.787a.668.668,0,0,1-.561,1.03m-109.493-3.9a.677.677,0,0,1-.1-.007.668.668,0,0,1-.562-.76c.171-1.144.355-2.261.546-3.319a.668.668,0,1,1,1.315.237c-.189,1.045-.37,2.149-.539,3.28a.668.668,0,0,1-.66.569M228,356.209a.667.667,0,0,1-.52-.248c-.681-.842-1.4-1.691-2.143-2.523a.668.668,0,1,1,1-.889c.755.847,1.489,1.712,2.184,2.571a.668.668,0,0,1-.519,1.089m-4.441-4.993a.666.666,0,0,1-.479-.2c-.758-.78-1.552-1.564-2.359-2.329a.668.668,0,0,1,.92-.97c.82.778,1.627,1.574,2.4,2.367a.668.668,0,0,1-.479,1.134m-99.934-.075a.669.669,0,0,1-.654-.811c.247-1.13.514-2.233.792-3.278a.668.668,0,0,1,1.291.344c-.274,1.026-.535,2.109-.778,3.22a.668.668,0,0,1-.652.526m95.086-4.525a.666.666,0,0,1-.441-.166c-.82-.72-1.672-1.441-2.533-2.144a.668.668,0,1,1,.845-1.035c.873.713,1.738,1.445,2.57,2.175a.668.668,0,0,1-.441,1.17m-93.355-1.928a.669.669,0,0,1-.635-.876c.36-1.1.748-2.171,1.154-3.181a.668.668,0,1,1,1.24.5c-.4.982-.773,2.024-1.124,3.1a.668.668,0,0,1-.635.461m88.178-2.3a.665.665,0,0,1-.4-.136c-.872-.663-1.773-1.325-2.676-1.966a.668.668,0,0,1,.773-1.09c.915.649,1.828,1.32,2.712,1.992a.668.668,0,0,1-.405,1.2m-5.445-3.866a.665.665,0,0,1-.369-.111c-.914-.606-1.854-1.208-2.794-1.79a.668.668,0,1,1,.7-1.136c.952.589,1.9,1.2,2.829,1.812a.668.668,0,0,1-.37,1.225m-80.23-.017a.669.669,0,0,1-.6-.967c.516-1.035,1.072-2.033,1.653-2.966a.668.668,0,1,1,1.135.706c-.559.9-1.094,1.859-1.591,2.856a.668.668,0,0,1-.6.37m74.552-3.5a.666.666,0,0,1-.334-.09c-.954-.551-1.93-1.1-2.9-1.619a.668.668,0,0,1,.633-1.177c.984.53,1.973,1.081,2.938,1.639a.668.668,0,0,1-.335,1.247m-71.024-2.141a.668.668,0,0,1-.526-1.081,28.668,28.668,0,0,1,2.254-2.551.668.668,0,1,1,.946.944,27.329,27.329,0,0,0-2.148,2.432.667.667,0,0,1-.526.256m65.133-1.03a.666.666,0,0,1-.3-.071c-.989-.495-2-.98-3-1.444a.668.668,0,1,1,.561-1.213c1.013.469,2.034.96,3.036,1.461a.668.668,0,0,1-.3,1.266m-6.072-2.81a.666.666,0,0,1-.262-.054c-1.019-.434-2.053-.856-3.076-1.255a.668.668,0,1,1,.485-1.245c1.035.4,2.083.831,3.115,1.27a.668.668,0,0,1-.262,1.283m-54.373-.853a.668.668,0,0,1-.411-1.2,27.424,27.424,0,0,1,2.81-1.918.668.668,0,1,1,.683,1.148,26.089,26.089,0,0,0-2.672,1.824.665.665,0,0,1-.41.141m48.144-1.574a.667.667,0,0,1-.223-.038c-1.046-.37-2.106-.724-3.149-1.054a.668.668,0,1,1,.4-1.274c1.057.334,2.131.693,3.191,1.068a.668.668,0,0,1-.223,1.3m-42.447-1.825a.668.668,0,0,1-.272-1.279,32.248,32.248,0,0,1,3.186-1.217.668.668,0,0,1,.411,1.272,30.927,30.927,0,0,0-3.054,1.166.667.667,0,0,1-.272.058m36.073-.188a.669.669,0,0,1-.179-.025c-1.071-.3-2.152-.577-3.212-.83a.668.668,0,0,1,.31-1.3c1.076.257,2.173.54,3.26.842a.668.668,0,0,1-.179,1.312m-6.5-1.548a.67.67,0,0,1-.13-.013c-1.094-.216-2.192-.408-3.264-.573a.668.668,0,0,1,.2-1.321c1.091.167,2.208.363,3.32.582a.668.668,0,0,1-.129,1.324m-23.228-.331a.668.668,0,0,1-.145-1.321c1.076-.24,2.2-.442,3.342-.6a.668.668,0,1,1,.183,1.324c-1.1.153-2.193.348-3.234.58a.672.672,0,0,1-.146.016m16.622-.678a.679.679,0,0,1-.071,0c-1.11-.118-2.219-.207-3.3-.266a.668.668,0,0,1,.073-1.334c1.1.06,2.232.152,3.365.272a.668.668,0,0,1-.07,1.333m-10.011-.248a.668.668,0,0,1-.043-1.335c1.1-.072,2.236-.11,3.381-.112h0a.668.668,0,0,1,0,1.336c-1.117,0-2.226.039-3.3.109h-.044"
                                      transform="translate(0 -298.927)" fill="#b1b1b1"/>
                            </g>
                        </g>
                    </g>
                </g>
            </g>
            <g id="Group_9289" data-name="Group 9289" transform="translate(0 -3.504)">
                <g id="Group_9288" data-name="Group 9288" clip-path="url(#clip-path-2)">
                    <path id="Path_18249" data-name="Path 18249"
                          d="M1624.626,2122.778v-8.11a2.974,2.974,0,0,0-2.725-3.171h-28.472a2.974,2.974,0,0,0-2.725,3.171v81.476h89.7v-64.228c0-3.217-2.241-5.824-5.005-5.824h-47.928a3.106,3.106,0,0,1-2.847-3.313"
                          transform="translate(-1484.406 -1970.397)" fill="#dedede"/>
                    <path id="Path_18250" data-name="Path 18250"
                          d="M1590.257,2522.226h89.7l12.6-55.727c.636-2.815-1.188-5.569-3.689-5.569h-81.813a3.965,3.965,0,0,0-3.689,3.31Z"
                          transform="translate(-1483.989 -2296.479)" fill="#eaeaea"/>
                    <path id="Path_18252" data-name="Path 18252"
                          d="M2216.247,2795.871h-4.62l-3.01-7.218-5.865,7.218h-4.333l8.277-9.841-4.1-9.241h4.464l2.753,6.865,5.391-6.865h4.359l-7.862,9.462Z"
                          transform="translate(-2051.51 -2591.231)" fill="#fff"/>
                    <path id="Path_18253" data-name="Path 18253"
                          d="M2521.148,1190.84V1216a1.726,1.726,0,0,1-1.726,1.726H2497.17a1.726,1.726,0,0,1-1.726-1.726v-29.8a1.726,1.726,0,0,1,1.726-1.726h17.5l.115.113Z"
                          transform="translate(-2328.687 -1105.33)" fill="#eaeaea"/>
                    <g id="Group_9278" data-name="Group 9278" transform="translate(186.103 79.266)" opacity="0.1">
                        <g id="Group_9277" data-name="Group 9277">
                            <g id="Group_9276" data-name="Group 9276" clip-path="url(#clip-path-3)">
                                <path id="Path_18254" data-name="Path 18254"
                                      d="M2791.307,1192.424h-4.953a1.4,1.4,0,0,1-1.4-1.405v-4.839Z"
                                      transform="translate(-2784.949 -1186.18)"/>
                            </g>
                        </g>
                    </g>
                    <path id="Path_18255" data-name="Path 18255"
                          d="M2616.979,1323.254v-.79a3.5,3.5,0,0,1,.438-1.783,5.734,5.734,0,0,1,1.6-1.612,6.707,6.707,0,0,0,1.479-1.3,1.887,1.887,0,0,0,.357-1.121,1.215,1.215,0,0,0-.512-1.057,2.446,2.446,0,0,0-1.431-.363,8.219,8.219,0,0,0-3.652,1.047l-1.164-2.339a10.174,10.174,0,0,1,5.051-1.335,5.373,5.373,0,0,1,3.5,1.057,3.452,3.452,0,0,1,1.3,2.819,3.75,3.75,0,0,1-.534,2.029,7.607,7.607,0,0,1-2.029,1.922,6.262,6.262,0,0,0-1.3,1.153,1.79,1.79,0,0,0-.272,1.036v.641Zm-.342,3.652a1.79,1.79,0,0,1,.48-1.356,1.95,1.95,0,0,1,1.4-.459,1.893,1.893,0,0,1,1.372.47,2.075,2.075,0,0,1-.005,2.675,1.86,1.86,0,0,1-1.367.486,1.915,1.915,0,0,1-1.388-.475,1.777,1.777,0,0,1-.491-1.34"
                          transform="translate(-2439.41 -1224.883)" fill="#dedede"/>
                    <path id="Path_18256" data-name="Path 18256"
                          d="M414.962,2029.633l7.739,24.454a1.759,1.759,0,0,1-1.146,2.208l-21.624,6.844a1.759,1.759,0,0,1-2.208-1.146l-9.164-28.955a1.759,1.759,0,0,1,1.146-2.208l17.011-5.384.147.075Z"
                          transform="translate(-362.517 -1890.096)" fill="#eaeaea"/>
                    <path id="Path_18265" data-name="Path 18265"
                          d="M20.633,3.262l6.029,19.051a1.371,1.371,0,0,1-.893,1.72L8.923,29.364a1.37,1.37,0,0,1-1.72-.893L.064,5.914a1.371,1.371,0,0,1,.893-1.72L14.209,0l.115.058Z"
                          transform="matrix(0.883, 0.469, -0.469, 0.883, 115.782, 49.699)" fill="#eaeaea"/>
                    <path id="Path_18267" data-name="Path 18267"
                          d="M27.136,4.29l7.929,25.055a1.8,1.8,0,0,1-1.175,2.263L11.736,38.619a1.8,1.8,0,0,1-2.262-1.174L.085,7.778A1.8,1.8,0,0,1,1.259,5.516L18.688,0l.151.077Z"
                          transform="translate(227.813 90.986) rotate(17)" fill="#eaeaea"/>
                    <g id="Group_9281" data-name="Group 9281" transform="translate(44.347 135.424)" opacity="0.1">
                        <g id="Group_9280" data-name="Group 9280">
                            <g id="Group_9279" data-name="Group 9279" clip-path="url(#clip-path-4)">
                                <path id="Path_18257" data-name="Path 18257"
                                      d="M671.725,2030.677l-4.813,1.523a1.432,1.432,0,0,1-1.8-.933l-1.488-4.7Z"
                                      transform="translate(-663.627 -2026.564)"/>
                            </g>
                        </g>
                    </g>
                    <g id="Group_9294" data-name="Group 9294"
                       transform="matrix(0.883, 0.469, -0.469, 0.883, 128.403, 56.475)" opacity="0.1">
                        <g id="Group_9280-2" data-name="Group 9280">
                            <g id="Group_9279-2" data-name="Group 9279" clip-path="url(#clip-path-5)">
                                <path id="Path_18257-2" data-name="Path 18257"
                                      d="M6.309,3.2,2.56,4.391a1.116,1.116,0,0,1-1.4-.727L0,0Z"
                                      transform="translate(0 0)"/>
                            </g>
                        </g>
                    </g>
                    <g id="Group_9295" data-name="Group 9295" transform="translate(245.806 96.567) rotate(17)"
                       opacity="0.1">
                        <g id="Group_9280-3" data-name="Group 9280">
                            <g id="Group_9279-3" data-name="Group 9279" clip-path="url(#clip-path-6)">
                                <path id="Path_18257-3" data-name="Path 18257"
                                      d="M8.3,4.214,3.366,5.774a1.467,1.467,0,0,1-1.842-.956L0,0Z"
                                      transform="translate(0 0)"/>
                            </g>
                        </g>
                    </g>
                    <path id="Path_18258" data-name="Path 18258"
                          d="M552.149,2194.275l-2.883.913-4.195-3.628-1.344,5.38-2.7.856,2.007-7.391-5.523-4.6,2.785-.882,3.922,3.472,1.161-5.081,2.72-.861-1.87,7.088Z"
                          transform="translate(-501.588 -2036.616)" fill="#dedede"/>
                    <path id="Path_18266" data-name="Path 18266"
                          d="M11.407,9.206l-2.246.711L5.893,7.091,4.846,11.283l-2.107.667L4.3,6.191,0,2.611l2.17-.687,3.055,2.7.9-3.958L8.249,0,6.792,5.522Z"
                          transform="matrix(0.883, 0.469, -0.469, 0.883, 118.795, 60.558)" fill="#dedede"/>
                    <path id="Path_18268" data-name="Path 18268"
                          d="M15,12.108l-2.954.935L7.75,9.326,6.373,14.838l-2.77.877L5.658,8.143,0,3.433l2.854-.9L6.872,6.088,8.061.882,10.848,0,8.933,7.262Z"
                          transform="translate(234.428 104.25) rotate(17)" fill="#dedede"/>
                </g>
            </g>
        </g>
    </g>
</svg>
